<svg width="30" height="30" viewBox="0 0 30 30" fill="none" xmlns="http://www.w3.org/2000/svg">
<circle cx="15" cy="15" r="14.94" fill="#F8F8EF" stroke="black" stroke-width="0.12"/>
<mask id="mask0_37_81" style="mask-type:alpha" maskUnits="userSpaceOnUse" x="0" y="0" width="30" height="30">
<circle cx="15" cy="15" r="14.94" fill="#D9D9D9" stroke="black" stroke-width="0.12"/>
</mask>
<g mask="url(#mask0_37_81)">
<rect y="10.8" width="30" height="8.4" fill="#F8F8EF"/>
<line x1="0.719971" y1="19.26" x2="29.28" y2="19.26" stroke="black" stroke-width="0.12"/>
<path d="M3.85438 13.1594C4.29718 13.1594 4.63198 13.2566 4.85878 13.451C5.08558 13.6454 5.19898 13.9082 5.19898 14.2394C5.19898 14.5706 5.04598 14.8298 4.73998 15.017C4.47358 15.1826 4.11718 15.2654 3.67078 15.2654H3.21718V16.7126H3.71938V16.88H2.21818V16.7126H2.72578V13.3268H2.21818V13.1594H3.85438ZM4.34038 14.9198C4.54558 14.765 4.64458 14.5328 4.63738 14.2232C4.63018 13.9136 4.55818 13.6868 4.42138 13.5428C4.28818 13.3988 4.07758 13.3268 3.78958 13.3268H3.21718V15.1196H3.68158C3.95158 15.1196 4.17118 15.053 4.34038 14.9198ZM10.2859 15.5894H10.4587L10.3885 16.88H7.44555V16.7126H7.95315V13.3268H7.44555V13.1594H8.94135V13.3268H8.43375V16.7126L9.25995 16.6964C9.35715 16.6964 9.47775 16.6694 9.62175 16.6154C9.76575 16.5614 9.87195 16.5002 9.94035 16.4318C10.1563 16.2302 10.2715 15.9494 10.2859 15.5894ZM16.5019 16.7126V16.88H15.0979V16.7126H15.5299L15.1627 15.6488H13.8613L13.6561 16.1348C13.5913 16.3004 13.5589 16.4228 13.5589 16.502C13.5589 16.5776 13.5697 16.6316 13.5913 16.664C13.6129 16.6964 13.7263 16.7126 13.9315 16.7126V16.88H12.7543V16.7126C12.9415 16.7162 13.0765 16.6928 13.1593 16.6424C13.2457 16.5884 13.3393 16.4192 13.4401 16.1348L14.6119 13.0568H14.8279L16.1023 16.7126H16.5019ZM13.9369 15.4436H15.0871L14.5525 13.8614L13.9369 15.4436ZM21.6837 16.1888L21.7593 16.2752C21.5685 16.5416 21.3651 16.7234 21.1491 16.8206C20.9331 16.9178 20.6685 16.9664 20.3553 16.9664C19.8945 16.9664 19.5021 16.7774 19.1781 16.3994C18.8541 16.0142 18.6939 15.5426 18.6975 14.9846C18.7047 14.423 18.8667 13.9658 19.1835 13.613C19.5003 13.2566 19.8909 13.0784 20.3553 13.0784C20.6505 13.0784 20.8647 13.0928 20.9979 13.1216C21.1311 13.1468 21.2913 13.1954 21.4785 13.2674V14.1152H21.3165C21.2913 13.7984 21.2067 13.5698 21.0627 13.4294C20.9187 13.2854 20.6883 13.2206 20.3715 13.235C19.6731 13.2674 19.3239 13.8632 19.3239 15.0224C19.3239 15.5336 19.4139 15.953 19.5939 16.2806C19.7811 16.6046 20.0259 16.7702 20.3283 16.7774C20.6307 16.781 20.8791 16.7378 21.0735 16.6478C21.2679 16.5542 21.4713 16.4012 21.6837 16.1888ZM27.0079 15.5894H27.1807L27.1213 16.88H23.9839V16.7126H24.4915V13.3268H23.9839V13.1594H27.0349L27.0457 14.2556H26.8783C26.8531 13.9424 26.7667 13.7138 26.6191 13.5698C26.4715 13.4222 26.2303 13.3448 25.8955 13.3376L24.9721 13.3268V14.8928H25.6309C25.7857 14.8928 25.9009 14.8478 25.9765 14.7578C26.0593 14.6426 26.1007 14.4752 26.1007 14.2556H26.2681V15.7514H26.1007C26.1007 15.539 26.0557 15.3734 25.9657 15.2546C25.8793 15.1358 25.7677 15.0764 25.6309 15.0764H24.9721V16.7126L25.9819 16.6964C26.0827 16.6964 26.2033 16.6694 26.3437 16.6154C26.4877 16.5614 26.5939 16.5002 26.6623 16.4318C26.8783 16.2302 26.9935 15.9494 27.0079 15.5894Z" fill="black"/>
</g>
<line x1="0.719971" y1="10.74" x2="29.28" y2="10.74" stroke="black" stroke-width="0.12"/>
<path d="M8.47494 8.9126V9.08H7.07094V8.9126H7.50294L7.13574 7.8488H5.83434L5.62914 8.3348C5.56434 8.5004 5.53194 8.6228 5.53194 8.702C5.53194 8.7776 5.54274 8.8316 5.56434 8.864C5.58594 8.8964 5.69934 8.9126 5.90454 8.9126V9.08H4.72734V8.9126C4.91454 8.9162 5.04954 8.8928 5.13234 8.8424C5.21874 8.7884 5.31234 8.6192 5.41314 8.3348L6.58494 5.2568H6.80094L8.07534 8.9126H8.47494ZM5.90994 7.6436H7.06014L6.52554 6.0614L5.90994 7.6436ZM11.7445 5.3594L11.7553 6.4556H11.5933C11.5717 6.1532 11.4907 5.93 11.3503 5.786C11.2099 5.6384 10.9633 5.5556 10.6105 5.5376L10.3621 5.5268V8.9126H10.8697V9.08H9.36851V8.9126H9.87071V5.5268L9.62771 5.5376C9.27851 5.552 9.03371 5.6294 8.89331 5.7698C8.75651 5.9066 8.67191 6.1352 8.63951 6.4556H8.48291L8.49371 5.3594H11.7445ZM17.25 5.3594L17.2608 6.4556H17.0988C17.0772 6.1532 16.9962 5.93 16.8558 5.786C16.7154 5.6384 16.4688 5.5556 16.116 5.5376L15.8676 5.5268V8.9126H16.3752V9.08H14.874V8.9126H15.3762V5.5268L15.1332 5.5376C14.784 5.552 14.5392 5.6294 14.3988 5.7698C14.262 5.9066 14.1774 6.1352 14.145 6.4556H13.9884L13.9992 5.3594H17.25ZM21.2674 8.9126V9.08H19.7662V8.9126H20.2738V7.217H18.616V8.9126H19.1182V9.08H17.6278V8.9126H18.1354V5.5268H17.6278V5.3594H19.1182V5.5268H18.616V7.028H20.2738V5.5268H19.7662V5.3594H21.2674V5.5268H20.7652V8.9126H21.2674ZM24.7818 7.7894H24.9546L24.8952 9.08H21.7578V8.9126H22.2654V5.5268H21.7578V5.3594H24.8088L24.8196 6.4556H24.6522C24.627 6.1424 24.5406 5.9138 24.393 5.7698C24.2454 5.6222 24.0042 5.5448 23.6694 5.5376L22.746 5.5268V7.0928H23.4048C23.5596 7.0928 23.6748 7.0478 23.7504 6.9578C23.8332 6.8426 23.8746 6.6752 23.8746 6.4556H24.042V7.9514H23.8746C23.8746 7.739 23.8296 7.5734 23.7396 7.4546C23.6532 7.3358 23.5416 7.2764 23.4048 7.2764H22.746V8.9126L23.7558 8.8964C23.8566 8.8964 23.9772 8.8694 24.1176 8.8154C24.2616 8.7614 24.3678 8.7002 24.4362 8.6318C24.6522 8.4302 24.7674 8.1494 24.7818 7.7894Z" fill="black"/>
<g clip-path="url(#clip0_37_81)">
<path d="M20.2833 23.4367C20.1582 23.554 20.0693 23.7759 19.9175 24.2859C19.8854 24.3937 19.862 24.5052 19.873 24.6166C19.8895 24.7819 19.95 24.8844 20.071 24.9685C20.1997 25.0585 20.3672 25.0807 20.5286 25.0807H20.9466C21.2345 25.0807 21.5367 25.0279 21.7295 24.8313C21.9492 24.6077 22.0062 24.3596 21.9374 24.1956M22.0755 21.666L22.9967 21.3279C23.2783 21.2246 23.6168 21.2544 23.8223 21.4595C23.9218 21.5589 23.9856 21.6601 24.0051 21.7925V22.3186C24.0051 22.6256 23.8621 22.9288 23.575 23.0871C23.4106 23.1776 23.2514 23.2414 23.0402 23.3102M24.0051 22.684C24.3291 22.736 24.5109 22.7663 24.8323 22.811C24.9583 22.828 25.0523 22.8122 25.1579 22.7464C25.3216 22.6447 25.4126 22.4506 25.3488 22.2785C25.2861 22.1092 25.1343 21.9746 24.8323 21.7948C24.5153 21.5905 24.334 21.5054 24.0051 21.4136M20.0077 25.0975C20.0336 25.4515 20.1667 25.6772 20.5591 26.1137C20.7368 26.2823 20.8663 26.3516 21.0382 26.3685C21.1729 26.3815 21.3041 26.3208 21.3885 26.2231C21.4922 26.1033 21.5343 26.0046 21.5241 25.8597L21.386 25.0975M20.4213 22.8043C20.753 22.2561 20.992 22.0317 21.5241 21.7925C21.6454 21.7318 21.7468 21.6971 21.8428 21.691C22.2256 21.6668 22.4316 22.0852 22.5875 22.407L22.8647 22.979C22.8897 23.031 22.9093 23.0853 22.9186 23.1414C22.9618 23.3959 22.9194 23.5237 22.7646 23.6897L22.5124 23.921C22.4052 24.0194 22.2908 24.1183 22.1461 24.1597C22.1049 24.1714 22.0661 24.1778 22.0271 24.1793C21.7694 24.1885 21.5274 24.0599 21.2843 23.9812C20.9727 23.8807 20.7425 23.7185 20.4213 23.4367C20.2503 23.1856 20.2583 23.0468 20.4213 22.8043Z" stroke="#333333" stroke-width="0.18" stroke-linecap="round" stroke-linejoin="round"/>
</g>
<path d="M15 23.3825C16.4912 23.3825 17.7 22.8251 17.7 22.1375C17.7 21.4499 16.4912 20.8925 15 20.8925C13.5088 20.8925 12.3 21.4499 12.3 22.1375C12.3 22.8251 13.5088 23.3825 15 23.3825Z" stroke="#333333" stroke-width="0.18" stroke-linecap="round" stroke-linejoin="round"/>
<path d="M15 26.7024C15.3591 26.7024 15.5597 27.017 15.6531 27.2901C15.6748 27.3551 15.6805 27.4299 15.6692 27.5008C15.6578 27.5717 15.6301 27.634 15.5913 27.676C15.4163 27.8552 15.2103 27.9498 15 27.9474C14.7764 27.9474 14.5707 27.8458 14.4087 27.6756C14.3699 27.6336 14.3422 27.5713 14.3309 27.5004C14.3195 27.4295 14.3252 27.3547 14.3469 27.2897C14.4403 27.0178 14.6409 26.7024 15 26.7024ZM15 26.7024V23.3824" stroke="#333333" stroke-width="0.18" stroke-linecap="round" stroke-linejoin="round"/>
<path d="M8.61002 22.35H9.00752C9.18323 22.35 9.35174 22.433 9.47598 22.5806C9.60023 22.7283 9.67002 22.9286 9.67002 23.1375C9.67002 23.3463 9.60023 23.5467 9.47598 23.6943C9.35174 23.842 9.18323 23.925 9.00752 23.925H8.61002M8.61002 22.35C8.61002 22.183 8.51462 22.035 8.36543 22.035H5.14462C5.1125 22.035 5.08069 22.0425 5.05102 22.0571C5.02134 22.0717 4.99438 22.0931 4.97166 22.1201C4.94895 22.1471 4.93094 22.1792 4.91864 22.2145C4.90635 22.2497 4.90002 22.2876 4.90002 22.3257V24.555C4.90002 24.8892 5.0117 25.2096 5.21049 25.4459C5.40928 25.6822 5.67889 25.815 5.96002 25.815H7.55002C7.83115 25.815 8.10077 25.6822 8.29956 25.4459C8.49835 25.2096 8.61002 24.8892 8.61002 24.555V23.925M8.61002 22.35V23.925M8.08002 20.145L7.55002 21.09M7.28502 20.145L6.75502 21.09M6.49002 20.145L5.96002 21.09" stroke="#333333" stroke-width="0.18" stroke-linecap="round" stroke-linejoin="round"/>
<defs>
<clipPath id="clip0_37_81">
<rect width="6.6" height="6.12" fill="white" transform="translate(19.32 20.76)"/>
</clipPath>
</defs>
</svg>
