<svg width="87" height="87" viewBox="0 0 87 87" fill="none" xmlns="http://www.w3.org/2000/svg">
<g filter="url(#filter0_d_61_38)">
<circle cx="40" cy="40" r="39.84" fill="#F8F8EF" stroke="black" stroke-width="0.32"/>
<g clip-path="url(#clip0_61_38)">
<path d="M23.7913 60.4882H24.7077C25.9288 60.4882 26.2915 60.6721 26.2618 61.5876C26.2137 63.1027 25.5642 64.8635 22.9671 65.3465" stroke="#333333" stroke-width="1.12179" stroke-linecap="round" stroke-linejoin="round"/>
<path d="M19.2148 54.9359C18.8541 55.1712 18.3517 55.977 18.3517 57.018M16.7297 55.977C16.7297 55.977 16.3737 56.324 16.3737 57.018M20.9897 55.977C20.8097 56.0949 20.6594 56.671 20.6594 57.018M15.6787 67.5085C13.4541 65.7074 13.1264 63.1534 13.0776 60.4882C13.0572 59.3368 13.3743 59.1002 14.8301 59.1002H21.8732C23.3291 59.1002 23.6469 59.3368 23.6258 60.4882C23.577 63.1534 23.25 65.7074 21.0247 67.5085C20.3917 68.0207 19.8576 68.1227 18.9576 68.1227H17.7458C16.8464 68.1227 16.3123 68.0214 15.6787 67.5085Z" stroke="#333333" stroke-width="1.12179" stroke-linecap="round" stroke-linejoin="round"/>
</g>
<mask id="mask0_61_38" style="mask-type:alpha" maskUnits="userSpaceOnUse" x="0" y="0" width="80" height="80">
<circle cx="40" cy="40" r="39.84" fill="#D9D9D9" stroke="black" stroke-width="0.32"/>
</mask>
<g mask="url(#mask0_61_38)">
<rect y="28.8" width="80" height="22.4" fill="#F8F8EF"/>
<line x1="1.91995" y1="51.36" x2="78.08" y2="51.36" stroke="black" stroke-width="0.32"/>
<path d="M13.5618 38.5388C13.5618 39.4294 13.1985 40.1325 12.472 40.6481C11.7782 41.131 10.8759 41.3724 9.76495 41.3724C9.67589 41.3724 9.52589 41.3653 9.31495 41.3513C9.1087 41.3372 8.99386 41.3302 8.97042 41.3302C8.92354 41.3302 8.90011 41.4028 8.90011 41.5481V44.0653C8.90011 44.2856 8.94464 44.4286 9.0337 44.4942C9.12745 44.5599 9.37589 44.6278 9.77901 44.6981C10.0368 44.745 10.1657 44.8364 10.1657 44.9724C10.1657 45.0896 10.1446 45.1622 10.1025 45.1903C10.0603 45.2185 9.94308 45.2278 9.75089 45.2185C8.90245 45.181 7.97667 45.1997 6.97354 45.2747C6.77198 45.2888 6.6712 45.2067 6.6712 45.0286C6.6712 44.9067 6.77198 44.8364 6.97354 44.8177C7.43292 44.7708 7.66261 44.52 7.66261 44.0653V37.3294C7.66261 36.8841 7.40245 36.6099 6.88214 36.5067C6.62432 36.4552 6.49542 36.3731 6.49542 36.2606C6.49542 36.1153 6.53057 36.0286 6.60089 36.0005C6.64776 35.9817 6.75557 35.9864 6.92432 36.0146C7.13995 36.0567 7.45167 36.0778 7.85948 36.0778C8.06573 36.0778 8.43604 36.0685 8.97042 36.0497C9.50948 36.0263 9.94308 36.0146 10.2712 36.0146C11.2743 36.0146 12.0665 36.2255 12.6478 36.6474C13.2571 37.088 13.5618 37.7185 13.5618 38.5388ZM12.1978 38.6935C12.1978 37.8731 12.0056 37.2989 11.6212 36.9708C11.2603 36.6614 10.6509 36.5067 9.79308 36.5067C9.44151 36.5067 9.20479 36.556 9.08292 36.6544C8.96104 36.7481 8.90011 36.9544 8.90011 37.2731V40.6411C8.90011 40.7724 9.21183 40.838 9.83526 40.838C10.5618 40.838 11.136 40.6528 11.5579 40.2825C11.9845 39.9122 12.1978 39.3825 12.1978 38.6935ZM27.7138 43.4606C27.5544 44.0606 27.4747 44.6231 27.4747 45.1481C27.4747 45.2372 27.3247 45.2747 27.0247 45.2606C26.2841 45.2231 25.3677 45.2044 24.2755 45.2044C23.113 45.2044 22.077 45.2278 21.1677 45.2747C21.0317 45.2841 20.9474 45.2724 20.9145 45.2396C20.8817 45.2114 20.8653 45.1411 20.8653 45.0286C20.8653 44.9067 20.9661 44.8364 21.1677 44.8177C21.627 44.7708 21.8567 44.5247 21.8567 44.0794V37.5896C21.8567 37.2614 21.8122 37.0177 21.7231 36.8583C21.6153 36.6708 21.4091 36.5255 21.1044 36.4224C20.9216 36.3567 20.8419 36.2513 20.8653 36.106C20.8794 36.0028 20.9099 35.9419 20.9567 35.9231C21.0036 35.9044 21.1255 35.9067 21.3224 35.9302C22.0067 36.0052 22.8224 36.0005 23.7692 35.9161C23.938 35.9021 24.0341 35.8974 24.0575 35.9021C24.1513 35.9161 24.2052 35.9794 24.2192 36.0919C24.2333 36.2185 24.2028 36.3052 24.1278 36.3521C24.0997 36.3708 24.0036 36.3989 23.8395 36.4364C23.5114 36.5114 23.3052 36.5981 23.2208 36.6966C23.1364 36.7903 23.0942 36.9919 23.0942 37.3013V43.5942C23.0942 43.988 23.2255 44.2575 23.488 44.4028C23.7552 44.5435 24.238 44.6138 24.9364 44.6138C25.602 44.6138 26.0942 44.5294 26.413 44.3606C26.7364 44.1872 26.9989 43.8638 27.2005 43.3903C27.2755 43.2028 27.3903 43.1396 27.545 43.2005C27.695 43.238 27.7513 43.3247 27.7138 43.4606ZM44.3337 45.0778C44.3055 45.2044 44.2751 45.2794 44.2423 45.3028C44.2141 45.3216 44.1485 45.3169 44.0454 45.2888C43.3751 45.1669 42.3954 45.1528 41.1063 45.2466C40.8626 45.2653 40.729 45.2185 40.7055 45.106C40.6821 44.9747 40.7595 44.8739 40.9376 44.8036C41.4438 44.5974 41.697 44.4052 41.697 44.2271C41.697 44.1567 41.6688 44.056 41.6126 43.9247C41.2657 43.095 40.9774 42.4271 40.7477 41.9208C40.4149 41.9396 39.829 41.9489 38.9899 41.9489C38.2962 41.9489 37.7055 41.9302 37.218 41.8927C37.054 42.2958 36.8243 42.8583 36.529 43.5802C36.4634 43.7442 36.4305 43.8919 36.4305 44.0231C36.4305 44.2856 36.5735 44.4778 36.8595 44.5997C37.3001 44.7872 37.5157 44.9302 37.5063 45.0286C37.497 45.188 37.3493 45.2513 37.0634 45.2185C36.1821 45.1247 35.3665 45.1528 34.6165 45.3028C34.4196 45.345 34.3095 45.2747 34.286 45.0919C34.2673 44.97 34.4196 44.8388 34.743 44.6981C35.0899 44.5528 35.3829 44.2177 35.622 43.6927C36.536 41.7099 37.1266 40.4067 37.3938 39.7833C38.0407 38.288 38.4977 37.0669 38.7649 36.12C38.8024 35.9747 38.9876 35.8388 39.3204 35.7122C39.4001 35.6841 39.5009 35.82 39.6227 36.12C40.6352 38.5575 41.7696 41.1638 43.0259 43.9388C43.2274 44.3794 43.5673 44.6724 44.0454 44.8177C44.261 44.8786 44.3571 44.9653 44.3337 45.0778ZM40.5157 41.3724C40.2063 40.6692 39.7235 39.5794 39.0673 38.1028C39.0298 38.0231 38.9876 37.9833 38.9407 37.9833C38.8938 37.9833 38.854 38.0231 38.8212 38.1028L37.4782 41.3442C37.9798 41.3817 38.5423 41.4005 39.1657 41.4005C39.5501 41.4005 40.0001 41.3911 40.5157 41.3724ZM60.1872 42.9263C60.1262 43.5497 60.0255 44.0536 59.8848 44.438C59.7911 44.6864 59.4301 44.9091 58.802 45.106C58.1176 45.3169 57.3301 45.4224 56.4395 45.4224C54.9676 45.4224 53.7419 44.9841 52.7622 44.1075C51.7684 43.2169 51.2715 42.0755 51.2715 40.6833C51.2715 39.263 51.7848 38.0817 52.8114 37.1396C53.8005 36.2302 54.9958 35.7755 56.3973 35.7755C57.3911 35.7755 58.2255 35.895 58.9005 36.1341C59.5005 36.345 59.8122 36.5419 59.8356 36.7247C59.8872 37.081 59.913 37.6599 59.913 38.4614C59.913 38.5927 59.7934 38.67 59.5544 38.6935C59.3716 38.7122 59.2591 38.656 59.2169 38.5247C58.9684 37.7231 58.6356 37.1677 58.2184 36.8583C57.8059 36.5489 57.1848 36.3942 56.3551 36.3942C55.3145 36.3942 54.4661 36.7388 53.8098 37.4278C53.0973 38.1778 52.7411 39.2044 52.7411 40.5075C52.7411 41.8013 53.1161 42.8466 53.8661 43.6435C54.5973 44.4263 55.5325 44.8177 56.6715 44.8177C57.4122 44.8177 57.9958 44.6583 58.4223 44.3396C58.8301 44.0349 59.163 43.5356 59.4208 42.8419C59.4958 42.6403 59.6645 42.5677 59.927 42.6239C60.1145 42.6661 60.2012 42.7669 60.1872 42.9263ZM74.8032 43.4606C74.6719 44.0185 74.5852 44.581 74.543 45.1481C74.5383 45.2372 74.3954 45.2747 74.1141 45.2606C73.3829 45.2231 72.4501 45.2044 71.3157 45.2044C70.0688 45.2044 68.9954 45.2278 68.0954 45.2747C67.8938 45.2841 67.793 45.2021 67.793 45.0286C67.793 44.9067 67.8938 44.8364 68.0954 44.8177C68.3766 44.7849 68.5571 44.731 68.6368 44.656C68.7352 44.5622 68.7844 44.3653 68.7844 44.0653V37.5896C68.7844 37.1536 68.7446 36.8794 68.6649 36.7669C68.5852 36.6497 68.3649 36.5349 68.004 36.4224C67.8118 36.3614 67.7415 36.2466 67.793 36.0778C67.8165 35.9888 67.854 35.9396 67.9055 35.9302C67.9524 35.9161 68.0766 35.9255 68.2782 35.9583C68.5782 36.0052 69.361 36.0286 70.6266 36.0286C71.8876 36.0286 72.9727 36.0005 73.8821 35.9442C74.1868 35.9255 74.3391 35.9466 74.3391 36.0075C74.3391 36.031 74.3344 36.0544 74.3251 36.0778C74.2266 36.5372 74.1844 37.0646 74.1985 37.6599C74.2032 37.8052 74.1352 37.8778 73.9946 37.8778C73.8633 37.8778 73.7719 37.8146 73.7204 37.688C73.5891 37.3599 73.4743 37.1372 73.3758 37.02C73.2258 36.8419 73.0102 36.7294 72.729 36.6825C72.504 36.6403 71.7118 36.6192 70.3524 36.6192C70.1977 36.6192 70.0993 36.645 70.0571 36.6966C70.0336 36.7247 70.0219 36.795 70.0219 36.9075V39.8466C70.0219 39.9638 70.0899 40.0224 70.2258 40.0224C70.6571 40.013 71.2758 39.9825 72.0821 39.931C72.2227 39.9169 72.3258 39.8489 72.3915 39.7271C72.443 39.6333 72.4969 39.4388 72.5532 39.1435C72.5954 38.9419 72.7055 38.8692 72.8836 38.9255C73.043 38.9536 73.111 39.0263 73.0876 39.1435C72.9563 39.781 72.9141 40.6106 72.961 41.6325C72.9657 41.745 72.8883 41.813 72.729 41.8364C72.5883 41.8552 72.5063 41.7778 72.4829 41.6044C72.436 41.2435 72.3751 41.0067 72.3001 40.8942C72.2297 40.7771 72.0938 40.7067 71.8922 40.6833C71.5079 40.6364 70.9266 40.613 70.1485 40.613C70.0641 40.613 70.0219 40.6458 70.0219 40.7114V43.7771C70.0219 44.213 70.275 44.4802 70.7813 44.5786C70.9079 44.6021 71.3461 44.6138 72.0961 44.6138C73.2633 44.6138 73.9922 44.206 74.2829 43.3903C74.3532 43.1981 74.468 43.1349 74.6274 43.2005C74.7774 43.238 74.836 43.3247 74.8032 43.4606Z" fill="black"/>
</g>
<path d="M55.5146 61.4076C55.1645 61.7614 54.916 62.4306 54.4913 63.969C54.4013 64.2944 54.3359 64.6306 54.3667 64.9667C54.4128 65.4651 54.5821 65.7744 54.9206 66.0282C55.2807 66.2997 55.7492 66.3667 56.2008 66.3667H57.3703C58.1758 66.3667 59.0213 66.2074 59.5607 65.6144C60.1754 64.9398 60.3346 64.1913 60.1423 63.6967M60.5285 56.0662L63.1059 55.0463C63.8937 54.7347 64.8408 54.8247 65.4155 55.4432C65.694 55.7432 65.8725 56.0485 65.9271 56.4478V58.0346C65.9271 58.9608 65.5271 59.8753 64.7238 60.353C64.2638 60.6261 63.8183 60.8184 63.2274 61.0261M65.9271 59.1369C66.8334 59.2938 67.342 59.3854 68.2414 59.52C68.5937 59.5715 68.8569 59.5238 69.1523 59.3254C69.6101 59.0184 69.8647 58.4331 69.6862 57.9139C69.5108 57.4031 69.0861 56.997 68.2414 56.4547C67.3543 55.8386 66.8473 55.5816 65.9271 55.3047M54.7437 66.4174C54.816 67.4851 55.1884 68.1658 56.2862 69.4827C56.7833 69.9912 57.1456 70.2004 57.6265 70.2511C58.0035 70.2904 58.3704 70.1073 58.6066 69.8127C58.8967 69.4512 59.0144 69.1535 58.9859 68.7166L58.5997 66.4174M55.9008 59.5C56.8286 57.8462 57.4972 57.1693 58.9859 56.4478C59.3252 56.2647 59.6091 56.1601 59.8776 56.1416C60.9486 56.0685 61.5248 57.3308 61.9611 58.3015L62.7366 60.0269C62.8066 60.1838 62.8612 60.3476 62.8874 60.5169C63.0082 61.2845 62.8897 61.6699 62.4565 62.1706L61.751 62.8683C61.451 63.1652 61.1309 63.4637 60.7262 63.5883C60.6108 63.6237 60.5024 63.6429 60.3931 63.6475C59.6722 63.6752 58.9952 63.2875 58.3151 63.0498C57.4434 62.7468 56.7994 62.2576 55.9008 61.4076C55.4223 60.6499 55.4446 60.2315 55.9008 59.5Z" stroke="#333333" stroke-width="1.12179" stroke-linecap="round" stroke-linejoin="round"/>
<path d="M22.9877 23.2879C22.9616 23.4054 22.9333 23.4751 22.9028 23.4969C22.8767 23.5143 22.8157 23.5099 22.7199 23.4838C22.0974 23.3706 21.1874 23.3575 19.9902 23.4446C19.7638 23.462 19.6397 23.4185 19.618 23.314C19.5962 23.1921 19.668 23.0985 19.8335 23.0332C20.3037 22.8416 20.5388 22.6631 20.5388 22.4977C20.5388 22.4324 20.5126 22.3388 20.4604 22.2169C20.1382 21.4463 19.8705 20.8259 19.6571 20.3557C19.348 20.3731 18.8038 20.3818 18.0245 20.3818C17.3802 20.3818 16.8316 20.3644 16.3789 20.3296C16.2265 20.704 16.0132 21.2264 15.7389 21.8969C15.6779 22.0493 15.6474 22.1864 15.6474 22.3083C15.6474 22.5521 15.7802 22.7306 16.0458 22.8438C16.455 23.018 16.6553 23.1507 16.6466 23.2422C16.6379 23.3902 16.5008 23.449 16.2352 23.4185C15.4167 23.3314 14.6592 23.3575 13.9626 23.4969C13.7797 23.536 13.6774 23.4707 13.6557 23.3009C13.6382 23.1877 13.7797 23.0658 14.0801 22.9352C14.4023 22.8003 14.6744 22.489 14.8964 22.0014C15.7454 20.1598 16.294 18.9495 16.5421 18.3705C17.1429 16.9816 17.5674 15.8475 17.8156 14.9681C17.8504 14.8331 18.0224 14.7069 18.3315 14.5893C18.4055 14.5632 18.4991 14.6895 18.6123 14.9681C19.5527 17.232 20.6062 19.6526 21.773 22.2299C21.9602 22.6392 22.2759 22.9113 22.7199 23.0463C22.9202 23.1028 23.0094 23.1834 22.9877 23.2879ZM19.4416 19.8463C19.1543 19.1933 18.7059 18.1811 18.0964 16.8097C18.0615 16.7357 18.0224 16.6987 17.9788 16.6987C17.9353 16.6987 17.8983 16.7357 17.8678 16.8097L16.6205 19.8202C17.0863 19.855 17.6088 19.8725 18.1878 19.8725C18.5448 19.8725 18.9627 19.8637 19.4416 19.8463ZM32.682 16.9076C32.6776 16.986 32.6668 17.0404 32.6493 17.0709C32.6363 17.097 32.5927 17.1166 32.5187 17.1297C32.3576 17.1645 32.251 17.1035 32.1987 16.9468C32.0115 16.3678 31.7895 15.9825 31.5326 15.7909C31.1756 15.5254 30.5509 15.3926 29.6584 15.3926C29.297 15.3926 29.099 15.4317 29.0641 15.5101C29.0511 15.5362 29.0445 15.5732 29.0445 15.6211V22.132C29.0445 22.4106 29.1098 22.6065 29.2404 22.7197C29.3711 22.8286 29.6301 22.9287 30.0176 23.0201C30.183 23.055 30.2766 23.0789 30.2984 23.092C30.3593 23.1311 30.3811 23.2139 30.3637 23.3401C30.3506 23.4403 30.3027 23.4947 30.22 23.5034C30.2113 23.5077 30.1221 23.5012 29.9523 23.4838C28.8029 23.3837 27.8538 23.3793 27.105 23.4707C26.9265 23.4925 26.8111 23.4925 26.7589 23.4707C26.7153 23.449 26.687 23.3967 26.674 23.314C26.6392 23.1747 26.7153 23.0811 26.9025 23.0332C27.277 22.9374 27.5295 22.822 27.6601 22.6871C27.8081 22.5347 27.8821 22.2887 27.8821 21.9491V15.6211C27.8821 15.4949 27.8037 15.4209 27.647 15.3991C27.6296 15.3947 27.5012 15.3926 27.2617 15.3926C26.4345 15.3926 25.825 15.5362 25.4332 15.8236C25.1371 16.0369 24.8738 16.4287 24.643 16.9991C24.569 17.1776 24.4667 17.2363 24.3361 17.1754C24.1881 17.1405 24.1336 17.06 24.1728 16.9338C24.3252 16.4636 24.4014 15.7996 24.4014 14.942C24.4014 14.8418 24.5342 14.8005 24.7997 14.8179C25.7401 14.8788 26.7806 14.9093 27.9213 14.9093C30.0807 14.9093 31.4804 14.8658 32.1204 14.7787C32.3642 14.7439 32.497 14.7831 32.5187 14.8963C32.6406 15.4753 32.6951 16.1457 32.682 16.9076ZM45.9451 16.9076C45.9407 16.986 45.9298 17.0404 45.9124 17.0709C45.8994 17.097 45.8558 17.1166 45.7818 17.1297C45.6207 17.1645 45.5141 17.1035 45.4618 16.9468C45.2746 16.3678 45.0526 15.9825 44.7957 15.7909C44.4387 15.5254 43.814 15.3926 42.9215 15.3926C42.5601 15.3926 42.362 15.4317 42.3272 15.5101C42.3141 15.5362 42.3076 15.5732 42.3076 15.6211V22.132C42.3076 22.4106 42.3729 22.6065 42.5035 22.7197C42.6341 22.8286 42.8932 22.9287 43.2807 23.0201C43.4461 23.055 43.5397 23.0789 43.5615 23.092C43.6224 23.1311 43.6442 23.2139 43.6268 23.3401C43.6137 23.4403 43.5658 23.4947 43.4831 23.5034C43.4744 23.5077 43.3851 23.5012 43.2153 23.4838C42.066 23.3837 41.1169 23.3793 40.3681 23.4707C40.1896 23.4925 40.0742 23.4925 40.022 23.4707C39.9784 23.449 39.9501 23.3967 39.9371 23.314C39.9022 23.1747 39.9784 23.0811 40.1656 23.0332C40.54 22.9374 40.7926 22.822 40.9232 22.6871C41.0712 22.5347 41.1452 22.2887 41.1452 21.9491V15.6211C41.1452 15.4949 41.0668 15.4209 40.9101 15.3991C40.8927 15.3947 40.7643 15.3926 40.5248 15.3926C39.6976 15.3926 39.0881 15.5362 38.6963 15.8236C38.4002 16.0369 38.1368 16.4287 37.9061 16.9991C37.8321 17.1776 37.7298 17.2363 37.5992 17.1754C37.4511 17.1405 37.3967 17.06 37.4359 16.9338C37.5883 16.4636 37.6645 15.7996 37.6645 14.942C37.6645 14.8418 37.7973 14.8005 38.0628 14.8179C39.0032 14.8788 40.0437 14.9093 41.1844 14.9093C43.3438 14.9093 44.7435 14.8658 45.3835 14.7787C45.6273 14.7439 45.76 14.7831 45.7818 14.8963C45.9037 15.4753 45.9581 16.1457 45.9451 16.9076ZM57.4549 23.2422C57.4549 23.3554 57.4396 23.425 57.4091 23.4511C57.383 23.4773 57.3047 23.4838 57.1741 23.4707C56.3207 23.3967 55.4609 23.3793 54.5945 23.4185C54.4247 23.4272 54.3159 23.4185 54.268 23.3924C54.2245 23.3619 54.2027 23.2944 54.2027 23.1899C54.2027 23.0506 54.3181 22.9657 54.5488 22.9352C54.9145 22.8873 55.0974 22.6914 55.0974 22.3475V19.781C55.0974 19.5938 55.0756 19.4697 55.0321 19.4088C54.9885 19.3435 54.8862 19.3108 54.7251 19.3108H50.1081C49.9165 19.3108 49.7968 19.3348 49.7489 19.3827C49.7054 19.4306 49.6836 19.5546 49.6836 19.7549V22.3475C49.6836 22.5957 49.9557 22.7916 50.4999 22.9352C50.7394 23.0005 50.8591 23.0854 50.8591 23.1899C50.8591 23.2988 50.8395 23.3662 50.8003 23.3924C50.7612 23.4185 50.6523 23.4272 50.4738 23.4185C49.6074 23.3793 48.7476 23.3967 47.8943 23.4707C47.7637 23.4838 47.6831 23.4773 47.6527 23.4511C47.6265 23.425 47.6135 23.3554 47.6135 23.2422C47.6135 23.129 47.7071 23.0637 47.8943 23.0463C48.3209 23.0027 48.5343 22.7698 48.5343 22.3475V16.0783C48.5343 15.6734 48.2926 15.4187 47.8094 15.3142C47.6352 15.275 47.5308 15.2467 47.4959 15.2293C47.4655 15.2075 47.4502 15.1596 47.4502 15.0856C47.4502 15.029 47.4546 14.9877 47.4633 14.9616C47.4894 14.8788 47.6178 14.844 47.8486 14.8571C48.95 14.918 49.8382 14.918 50.513 14.8571C50.6349 14.8484 50.7133 14.8571 50.7481 14.8832C50.7873 14.9093 50.8069 14.9768 50.8069 15.0856C50.8069 15.1684 50.7089 15.2315 50.513 15.275C50.1647 15.349 49.9557 15.4078 49.8861 15.4513C49.7511 15.5384 49.6836 15.7147 49.6836 15.9803V18.1876C49.6836 18.4924 49.8317 18.6447 50.1277 18.6447H54.6729C54.8514 18.6447 54.9624 18.6251 55.0059 18.586C55.0669 18.5294 55.0974 18.3879 55.0974 18.1615V15.915C55.0974 15.6799 55.0364 15.5232 54.9145 15.4448C54.8449 15.3969 54.662 15.3447 54.366 15.2881C54.1222 15.2402 54.0003 15.164 54.0003 15.0595C54.0003 14.942 54.022 14.868 54.0656 14.8375C54.1091 14.807 54.2223 14.8005 54.4051 14.8179C54.8884 14.8658 55.3847 14.8767 55.8941 14.8505C56.2554 14.8331 56.619 14.8135 56.9847 14.7918C57.1066 14.7918 57.1828 14.8026 57.2132 14.8244C57.2481 14.8462 57.2655 14.9158 57.2655 15.0334C57.2655 15.1466 57.1719 15.2141 56.9847 15.2358C56.5058 15.2881 56.2663 15.5145 56.2663 15.915V22.3475C56.2663 22.5608 56.3425 22.7176 56.4949 22.8177C56.6168 22.8961 56.8432 22.9722 57.1741 23.0463C57.3613 23.0854 57.4549 23.1507 57.4549 23.2422ZM65.7778 21.7859C65.6559 22.304 65.5753 22.8264 65.5362 23.3532C65.5318 23.4359 65.399 23.4707 65.1378 23.4577C64.4586 23.4228 63.5923 23.4054 62.5387 23.4054C61.3806 23.4054 60.3836 23.4272 59.5477 23.4707C59.3605 23.4794 59.2669 23.4032 59.2669 23.2422C59.2669 23.129 59.3605 23.0637 59.5477 23.0463C59.809 23.0158 59.9766 22.9657 60.0506 22.8961C60.142 22.809 60.1877 22.6261 60.1877 22.3475V16.333C60.1877 15.9281 60.1507 15.6734 60.0767 15.5689C60.0027 15.46 59.7981 15.3534 59.4628 15.2489C59.2843 15.1923 59.219 15.0856 59.2669 14.9289C59.2887 14.8462 59.3235 14.8005 59.3714 14.7918C59.415 14.7787 59.5303 14.7874 59.7175 14.8179C59.9962 14.8614 60.7232 14.8832 61.8987 14.8832C63.0698 14.8832 64.0777 14.8571 64.9223 14.8048C65.2053 14.7874 65.3468 14.807 65.3468 14.8636C65.3468 14.8854 65.3424 14.9071 65.3337 14.9289C65.2423 15.3556 65.2031 15.8453 65.2162 16.3983C65.2205 16.5332 65.1574 16.6007 65.0268 16.6007C64.9049 16.6007 64.82 16.5419 64.7721 16.4244C64.6502 16.1196 64.5435 15.9128 64.4521 15.804C64.3128 15.6385 64.1125 15.5341 63.8513 15.4905C63.6423 15.4513 62.9066 15.4317 61.644 15.4317C61.5003 15.4317 61.4089 15.4557 61.3697 15.5036C61.348 15.5297 61.3371 15.595 61.3371 15.6995V18.4292C61.3371 18.5381 61.4002 18.5925 61.5265 18.5925C61.927 18.5838 62.5017 18.5555 63.2505 18.5076C63.3811 18.4945 63.4769 18.4314 63.5378 18.3182C63.5857 18.2311 63.6358 18.0505 63.688 17.7762C63.7272 17.589 63.8295 17.5215 63.995 17.5737C64.143 17.5999 64.2061 17.6673 64.1844 17.7762C64.0625 18.3683 64.0233 19.1389 64.0668 20.088C64.0712 20.1924 63.9993 20.2556 63.8513 20.2773C63.7207 20.2948 63.6445 20.2229 63.6227 20.0618C63.5792 19.7266 63.5226 19.5067 63.4529 19.4023C63.3876 19.2934 63.2614 19.2281 63.0742 19.2063C62.7172 19.1628 62.1773 19.141 61.4546 19.141C61.3763 19.141 61.3371 19.1715 61.3371 19.2325V22.0797C61.3371 22.4846 61.5722 22.7328 62.0424 22.8242C62.1599 22.846 62.567 22.8569 63.2636 22.8569C64.3476 22.8569 65.0246 22.4781 65.2945 21.7206C65.3598 21.5421 65.4665 21.4833 65.6145 21.5442C65.7538 21.5791 65.8083 21.6596 65.7778 21.7859Z" fill="black"/>
<g clip-path="url(#clip1_61_38)">
<path d="M45.5824 58.9889L43.5223 56.013C43.3696 55.7928 43.1666 55.6123 42.9302 55.4863C42.6938 55.3602 42.4308 55.2923 42.163 55.2882L38.2533 55.2321H38.2452C36.2267 55.2321 34.678 55.5698 33.6805 57.2175C32.7519 58.7513 32.3558 61.364 32.3558 65.9535V66.5144H33.6373L32.8123 70.7212H33.9555L34.7805 66.5144H35.1603C36.0763 66.5226 36.9589 66.1701 37.6173 65.5331C38.2125 64.9636 38.6418 64.1845 38.8589 63.2799L38.8609 63.2718L39.8229 58.6619H38.6769L37.7662 63.0259C37.4889 64.1716 36.6595 65.3926 35.1603 65.3926H33.4797C33.5101 61.422 33.8717 59.0678 34.6402 57.7983C35.2852 56.7326 36.2281 56.3543 38.2413 56.3538L42.1468 56.4099C42.2361 56.4112 42.3238 56.4339 42.4026 56.4759C42.4814 56.5179 42.549 56.5781 42.5999 56.6514L44.9304 60.0175L48.0609 60.5393V61.1338L47.5388 63.918C47.3848 64.7397 47.1214 65.1537 46.0413 65.2834L41.6135 66.0409L41.5843 70.7212H42.706L42.7294 66.9879L46.1895 66.3955C46.9733 66.2991 47.5516 66.0465 47.9572 65.6234C48.3039 65.2617 48.5149 64.7996 48.6415 64.1247L49.1827 61.238V59.589L45.5824 58.9889Z" fill="#333333"/>
</g>
<line x1="1.60001" y1="28.64" x2="78.08" y2="28.64" stroke="black" stroke-width="0.32"/>
</g>
<defs>
<filter id="filter0_d_61_38" x="0" y="0" width="86.4" height="86.4" filterUnits="userSpaceOnUse" color-interpolation-filters="sRGB">
<feFlood flood-opacity="0" result="BackgroundImageFix"/>
<feColorMatrix in="SourceAlpha" type="matrix" values="0 0 0 0 0 0 0 0 0 0 0 0 0 0 0 0 0 0 127 0" result="hardAlpha"/>
<feOffset dx="3.2" dy="3.2"/>
<feGaussianBlur stdDeviation="1.6"/>
<feComposite in2="hardAlpha" operator="out"/>
<feColorMatrix type="matrix" values="0 0 0 0 0 0 0 0 0 0 0 0 0 0 0 0 0 0 0.25 0"/>
<feBlend mode="normal" in2="BackgroundImageFix" result="effect1_dropShadow_61_38"/>
<feBlend mode="normal" in="SourceGraphic" in2="effect1_dropShadow_61_38" result="shape"/>
</filter>
<clipPath id="clip0_61_38">
<rect width="15.3846" height="15.3846" fill="white" transform="translate(11.7949 53.3333)"/>
</clipPath>
<clipPath id="clip1_61_38">
<rect width="17.9487" height="17.9487" fill="white" transform="translate(31.7949 53.3333)"/>
</clipPath>
</defs>
</svg>
