<svg width="32" height="32" viewBox="0 0 32 32" fill="none" xmlns="http://www.w3.org/2000/svg">
<g id="mdi-light:camera">
<path id="Vector" d="M15.3333 10.6667C18.6666 10.6667 21.3333 13.3333 21.3333 16.6667C21.3333 20 18.6666 22.6667 15.3333 22.6667C12 22.6667 9.33329 20 9.33329 16.6667C9.33329 13.3333 12 10.6667 15.3333 10.6667ZM15.3333 12C14.0956 12 12.9086 12.4917 12.0335 13.3668C11.1583 14.242 10.6666 15.429 10.6666 16.6667C10.6666 17.9043 11.1583 19.0913 12.0335 19.9665C12.9086 20.8417 14.0956 21.3333 15.3333 21.3333C16.571 21.3333 17.758 20.8417 18.6331 19.9665C19.5083 19.0913 20 17.9043 20 16.6667C20 15.429 19.5083 14.242 18.6331 13.3668C17.758 12.4917 16.571 12 15.3333 12ZM6.66663 6.66667H9.33329L12 4H18.6666L21.3333 6.66667H24C25.0608 6.66667 26.0782 7.08809 26.8284 7.83824C27.5785 8.58839 28 9.6058 28 10.6667V22.6667C28 23.7275 27.5785 24.7449 26.8284 25.4951C26.0782 26.2452 25.0608 26.6667 24 26.6667H6.66663C5.60576 26.6667 4.58834 26.2452 3.8382 25.4951C3.08805 24.7449 2.66663 23.7275 2.66663 22.6667V10.6667C2.66663 9.6058 3.08805 8.58839 3.8382 7.83824C4.58834 7.08809 5.60576 6.66667 6.66663 6.66667ZM12.5466 5.33333L9.87996 8H6.66663C5.95938 8 5.2811 8.28095 4.78101 8.78105C4.28091 9.28115 3.99996 9.95942 3.99996 10.6667V22.6667C3.99996 23.3739 4.28091 24.0522 4.78101 24.5523C5.2811 25.0524 5.95938 25.3333 6.66663 25.3333H24C24.7072 25.3333 25.3855 25.0524 25.8856 24.5523C26.3857 24.0522 26.6666 23.3739 26.6666 22.6667V10.6667C26.6666 9.95942 26.3857 9.28115 25.8856 8.78105C25.3855 8.28095 24.7072 8 24 8H20.7866L18.12 5.33333H12.5466Z" fill="#33363F"/>
</g>
</svg>
