<svg width="32" height="32" viewBox="0 0 32 32" fill="none" xmlns="http://www.w3.org/2000/svg">
<g id="simple-icons:instagram" clip-path="url(#clip0_168_58)">
<path id="Vector" d="M9.3733 0.112C7.67063 0.192 6.50796 0.464 5.4933 0.862667C4.42625 1.26687 3.45991 1.89836 2.6613 2.71333C1.84969 3.51415 1.22186 4.48183 0.821296 5.54933C0.427963 6.568 0.159963 7.73333 0.0852963 9.43467C0.0106296 11.136 -0.00670373 11.6853 0.00129627 16.0307C0.00929627 20.376 0.0292963 20.92 0.111963 22.6267C0.193296 24.3293 0.463963 25.492 0.86263 26.508C1.2733 27.56 1.82263 28.4507 2.7133 29.3387C3.51489 30.1506 4.4835 30.7784 5.55196 31.1787C6.5693 31.572 7.7333 31.84 9.43596 31.9147C11.14 31.9893 11.688 32.0067 16.032 31.9987C20.376 31.9907 20.9226 31.9707 22.628 31.8893C24.3346 31.8093 25.4906 31.536 26.508 31.1387C27.5745 30.7343 28.5404 30.1028 29.3386 29.288C30.1506 28.4864 30.7784 27.5178 31.1786 26.4493C31.572 25.432 31.84 24.268 31.9133 22.5667C31.988 20.86 32.0066 20.3133 31.9973 15.9693C31.9893 11.6253 31.9706 11.08 31.8893 9.37333C31.8093 7.66667 31.5373 6.50933 31.1373 5.492C30.7333 4.42555 30.1023 3.45969 29.288 2.66133C28.4868 1.84956 27.5186 1.22172 26.4506 0.821333C25.432 0.429333 24.2693 0.16 22.5653 0.088C20.8626 0.012 20.3146 -0.00799999 15.9693 6.41292e-09C11.624 0.00800001 11.08 0.028 9.3733 0.112ZM9.55996 29.036C7.99996 28.9693 7.1533 28.7093 6.5893 28.492C5.89324 28.2377 5.26343 27.8298 4.74663 27.2987C4.21376 26.7841 3.80361 26.1561 3.54663 25.4613C3.32663 24.8973 3.06263 24.0507 2.99063 22.4907C2.91063 20.8053 2.89463 20.2987 2.88396 16.0267C2.87596 11.7547 2.89196 11.2493 2.9653 9.56267C3.03196 8.004 3.2933 7.156 3.5093 6.592C3.7973 5.844 4.1453 5.312 4.70263 4.74933C5.2176 4.2163 5.84605 3.80614 6.5413 3.54933C7.1053 3.32933 7.95063 3.068 9.51063 2.99333C11.1973 2.91333 11.7026 2.89733 15.9746 2.88667C20.2453 2.87867 20.752 2.89467 22.4413 2.96933C23.9986 3.036 24.8466 3.29467 25.4106 3.51333C26.1573 3.80133 26.6906 4.14667 27.2533 4.70667C27.816 5.26667 28.1613 5.796 28.4533 6.544C28.6733 7.10667 28.936 7.952 29.0093 9.51333C29.0893 11.2 29.108 11.7067 29.116 15.9773C29.1226 20.248 29.108 20.7547 29.0346 22.4413C28.9666 24.0013 28.708 24.848 28.4906 25.4147C28.2026 26.1613 27.8546 26.6947 27.296 27.2547C26.7814 27.7875 26.1534 28.1977 25.4586 28.4547C24.896 28.6747 24.048 28.9373 22.4906 29.012C20.8026 29.092 20.2973 29.108 16.024 29.1173C11.7506 29.1267 11.248 29.108 9.55996 29.036ZM22.604 7.448C22.6045 7.8278 22.7176 8.1989 22.9291 8.51438C23.1406 8.82986 23.4409 9.07553 23.792 9.22033C24.1431 9.36512 24.5293 9.40253 24.9016 9.32782C25.274 9.25311 25.6159 9.06964 25.884 8.80061C26.1521 8.53159 26.3343 8.1891 26.4077 7.81647C26.4812 7.44384 26.4424 7.0578 26.2964 6.70719C26.1504 6.35658 25.9037 6.05715 25.5875 5.84678C25.2713 5.63641 24.8998 5.52454 24.52 5.52533C24.011 5.52639 23.5232 5.72951 23.164 6.09004C22.8047 6.45058 22.6033 6.93901 22.604 7.448ZM7.7853 16.016C7.78954 18.1948 8.65915 20.2828 10.2028 21.8204C11.7465 23.3581 13.8378 24.2196 16.0166 24.2153C18.1955 24.2111 20.2834 23.3415 21.8211 21.7978C23.3587 20.2541 24.2202 18.1628 24.216 15.984C24.1845 13.8231 23.303 11.7616 21.7623 10.2462C20.2217 8.73067 18.1459 7.88324 15.9848 7.88745C13.8237 7.89166 11.7513 8.74717 10.2166 10.2686C8.68179 11.7901 7.80829 13.855 7.7853 16.016ZM10.6666 16.0107C10.6645 14.9558 10.9753 13.9241 11.5595 13.0458C12.1438 12.1676 12.9754 11.4824 13.9491 11.0767C14.9229 10.6711 15.995 10.5634 17.03 10.7671C18.0649 10.9708 19.0163 11.4769 19.7636 12.2212C20.511 12.9656 21.0209 13.9149 21.2287 14.9491C21.4366 15.9832 21.3331 17.0558 20.9314 18.0311C20.5297 19.0065 19.8478 19.8408 18.9719 20.4286C18.096 21.0164 17.0655 21.3312 16.0106 21.3333C15.3102 21.3347 14.6164 21.1982 13.9688 20.9314C13.3212 20.6647 12.7325 20.273 12.2363 19.7788C11.74 19.2845 11.346 18.6974 11.0767 18.0508C10.8074 17.4043 10.668 16.7111 10.6666 16.0107Z" fill="#ECECEC"/>
</g>
<defs>
<clipPath id="clip0_168_58">
<rect width="32" height="32" fill="white"/>
</clipPath>
</defs>
</svg>
