<svg width="90" height="26" viewBox="0 0 90 26" fill="none" xmlns="http://www.w3.org/2000/svg">
<g id="logos:instagram" clip-path="url(#clip0_168_60)">
<path id="Vector" d="M4.76874 0.15855C2.93237 0.927763 0.913886 3.09812 0.276332 5.82446C-0.531202 9.27766 2.82866 10.7384 3.10446 10.2601C3.42877 9.69742 2.50241 9.50723 2.31169 7.71533C2.06524 5.40101 3.14119 2.81511 4.4954 1.68045C4.74677 1.46952 4.73499 1.76307 4.73499 2.3057C4.73499 3.27618 4.68138 11.9885 4.68138 13.8068C4.68138 16.267 4.57978 17.044 4.39714 17.8118C4.2124 18.5896 3.91498 19.1154 4.14015 19.3179C4.39187 19.5443 5.46659 19.0055 6.08867 18.1373C6.83468 17.096 7.09589 15.8452 7.14282 14.4873C7.19943 12.85 7.19697 10.252 7.19943 8.77019C7.20154 7.41123 7.22228 3.43175 7.17552 1.03938C7.16409 0.452278 5.53672 -0.163303 4.76874 0.15855ZM69.9731 11.6727C69.9139 12.9518 69.6307 13.9515 69.2793 14.6567C68.599 16.022 67.1875 16.4458 66.5881 14.4834C66.2615 13.4136 66.2462 11.627 66.4809 10.1341C66.7199 8.61339 67.3875 7.46484 68.4927 7.56838C69.5829 7.67086 70.0931 9.07534 69.9731 11.6727ZM51.5953 19.6086C51.5805 21.7338 51.246 23.597 50.5288 24.1385C49.5114 24.9059 48.144 24.33 48.4272 22.7793C48.6777 21.407 49.8626 20.0055 51.5983 18.2931C51.5983 18.2931 51.6018 18.6836 51.5953 19.6086ZM51.3176 11.6604C51.2553 12.8254 50.9533 13.9956 50.6238 14.6569C49.9435 16.0222 48.5218 16.449 47.9326 14.4836C47.5297 13.1406 47.6262 11.4028 47.8253 10.3077C48.0841 8.8869 48.7113 7.56873 49.8371 7.56873C50.9319 7.56873 51.4719 8.76983 51.3176 11.6604ZM40.6714 11.6428C40.6047 12.8764 40.364 13.9077 39.9778 14.6569C39.2789 16.0128 37.8962 16.4428 37.2866 14.4836C36.847 13.0708 36.9966 11.1446 37.1794 10.104C37.4508 8.55978 38.1304 7.46502 39.1912 7.56873C40.2809 7.67525 40.8105 9.07569 40.6714 11.6428ZM89.4597 13.0838C89.1934 13.0838 89.0718 13.3584 88.971 13.8203C88.6225 15.4277 88.2556 15.7903 87.7829 15.7903C87.2547 15.7903 86.7801 14.9947 86.6579 13.4018C86.5621 12.1492 86.5776 9.84332 86.7001 7.54957C86.7253 7.0783 86.5952 6.61196 85.3312 6.15282C84.7873 5.95525 83.9966 5.66433 83.6029 6.6146C82.4907 9.29946 82.0555 11.431 81.953 12.2965C81.9477 12.3413 81.8927 12.3506 81.8832 12.2459C81.8178 11.5524 81.6721 10.2921 81.6538 7.64449C81.6503 7.12787 81.541 6.68825 80.9708 6.32825C80.6007 6.09446 79.4773 5.68138 79.0729 6.17304C78.7224 6.57487 78.3163 7.65662 77.8946 8.93911C77.5518 9.98149 77.3131 10.6864 77.3131 10.6864C77.3131 10.6864 77.3177 7.87424 77.3217 6.80743C77.3235 6.40507 77.0475 6.27095 76.9642 6.24669C76.5898 6.13806 75.8515 5.95648 75.5383 5.95648C75.1516 5.95648 75.057 6.17233 75.057 6.48733C75.057 6.52864 74.996 10.1898 74.996 12.7498C74.996 12.8611 74.996 12.9824 74.9965 13.1114C74.7828 14.2881 74.0893 15.8852 73.3352 15.8852C72.5801 15.8852 72.2239 15.2176 72.2239 12.1656C72.2239 10.3851 72.2774 9.61077 72.3036 8.323C72.3189 7.58121 72.3484 7.01168 72.3466 6.88248C72.341 6.4861 71.6558 6.28624 71.3368 6.21241C71.0163 6.13806 70.7379 6.10905 70.5205 6.12153C70.2127 6.13911 69.9949 6.34073 69.9949 6.61846C69.9949 6.76752 69.9966 7.05053 69.9966 7.05053C69.6003 6.42757 68.9627 5.99409 68.5385 5.86841C67.396 5.52915 66.2038 5.82974 65.3045 7.08815C64.5898 8.08781 64.159 9.22036 63.9894 10.8472C63.8654 12.0367 63.9059 13.2427 64.1263 14.2628C63.86 15.4138 63.3659 15.8852 62.8246 15.8852C62.0389 15.8852 61.4694 14.6031 61.5355 12.3851C61.5791 10.9263 61.871 9.90256 62.1901 8.42144C62.3261 7.79004 62.2156 7.45957 61.9384 7.14281C61.684 6.85225 61.1421 6.70372 60.3634 6.88618C59.8086 7.01643 59.0153 7.15653 58.2895 7.2641C58.2895 7.2641 58.3335 7.0892 58.3693 6.78124C58.5581 5.16582 56.8026 5.29677 56.2424 5.81269C55.9082 6.12083 55.6806 6.48417 55.5943 7.13737C55.4572 8.17412 56.3027 8.66314 56.3027 8.66314C56.0255 9.93297 55.3454 11.5916 54.6433 12.791C54.2673 13.4335 53.9797 13.9096 53.6083 14.4157C53.5962 12.3848 53.6094 10.3538 53.648 8.32318C53.6633 7.58139 53.6931 7.02698 53.6915 6.8976C53.6872 6.60792 53.518 6.49823 53.1659 6.35972C52.8544 6.23702 52.4863 6.1523 52.1043 6.12241C51.6224 6.08515 51.332 6.34056 51.3397 6.6429C51.3411 6.70003 51.3411 7.05053 51.3411 7.05053C50.9447 6.42757 50.3072 5.99409 49.883 5.86841C48.7404 5.52915 47.5483 5.82974 46.649 7.08815C45.9345 8.08781 45.4665 9.49088 45.3338 10.8349C45.2104 12.0873 45.2331 13.1517 45.4015 14.0485C45.2199 14.9464 44.6975 15.8854 44.1071 15.8854C43.3519 15.8854 42.9223 15.2176 42.9223 12.1656C42.9223 10.3851 42.9757 9.61077 43.0021 8.323C43.0174 7.58139 43.0468 7.01168 43.0452 6.88248C43.0396 6.4861 42.3542 6.28641 42.0351 6.21241C41.7015 6.13507 41.4134 6.10694 41.1921 6.12329C40.9003 6.14491 40.695 6.4063 40.695 6.60124V7.05053C40.2986 6.42757 39.6611 5.99409 39.2369 5.86841C38.0943 5.52915 36.9089 5.83466 36.0029 7.08815C35.4123 7.90535 34.934 8.81132 34.6879 10.817C34.6167 11.3965 34.5852 11.9395 34.5895 12.4466C34.3539 13.8873 33.3133 15.5477 32.4623 15.5477C31.9644 15.5477 31.4899 14.5816 31.4899 12.5231C31.4899 9.78092 31.6597 5.8765 31.6886 5.50033C31.6886 5.50033 32.7638 5.48205 32.9719 5.47958C33.5084 5.47361 33.9941 5.48644 34.7086 5.4497C35.0669 5.4316 35.4121 4.14541 35.0423 3.98633C34.8746 3.91426 33.69 3.85133 33.2203 3.84132C32.8255 3.83253 31.7262 3.75096 31.7262 3.75096C31.7262 3.75096 31.8248 1.15944 31.8478 0.885751C31.8672 0.657413 31.5718 0.539992 31.4027 0.468801C30.9911 0.294779 30.6228 0.211284 30.1863 0.121284C29.5831 -0.00316796 29.3096 0.118648 29.2561 0.62753C29.1756 1.40008 29.134 3.6629 29.134 3.6629C28.6913 3.6629 27.1793 3.57642 26.7367 3.57642C26.3253 3.57642 25.8813 5.34546 26.4501 5.36726C27.1044 5.39257 28.2447 5.41472 29.0005 5.43722C29.0005 5.43722 28.9668 9.40598 28.9668 10.6315C28.9669 10.7616 28.9674 10.8875 28.9682 11.0091C28.5521 13.1773 27.0868 14.3487 27.0868 14.3487C27.4015 12.9142 26.7586 11.8368 25.6008 10.9249C25.1742 10.589 24.332 9.95283 23.3898 9.25569C23.3898 9.25569 23.9354 8.7178 24.4195 7.6357C24.7623 6.86895 24.7772 5.99198 23.9354 5.79845C22.5447 5.47853 21.3981 6.49999 21.056 7.59053C20.7909 8.43532 20.9322 9.06198 21.4515 9.71307C21.4893 9.76071 21.5306 9.8094 21.5728 9.85826C21.259 10.4633 20.8276 11.278 20.4624 11.9098C19.4485 13.6641 18.6826 15.0513 18.1038 15.0513C17.6411 15.0513 17.6473 13.6426 17.6473 12.3238C17.6473 11.1868 17.7313 9.47735 17.7984 7.70777C17.8206 7.12242 17.5277 6.78897 17.0373 6.48698C16.7392 6.30347 16.103 5.94276 15.7346 5.94276C15.183 5.94276 13.5918 6.01782 12.0886 10.3666C11.8991 10.9147 11.5268 11.9135 11.5268 11.9135L11.5589 6.68385C11.5589 6.56116 11.4936 6.44268 11.344 6.36165C11.0907 6.22401 10.4141 5.94276 9.8124 5.94276C9.52587 5.94288 9.38261 6.07589 9.38261 6.34179L9.33023 14.5236C9.33023 15.1454 9.3464 15.8706 9.40793 16.1877C9.4691 16.5052 9.56841 16.7636 9.69111 16.9172C9.81398 17.0707 9.95583 17.1879 10.1898 17.2361C10.4076 17.2809 11.6001 17.434 11.6621 16.9784C11.7363 16.4321 11.7393 15.8415 12.3654 13.6382C13.3403 10.2079 14.6112 8.53446 15.2088 7.93998C15.3134 7.83627 15.4326 7.82994 15.4268 7.99992C15.4015 8.7519 15.3117 10.6313 15.2514 12.2274C15.0895 16.4998 15.8666 17.2916 16.9774 17.2916C17.8271 17.2916 19.0248 16.4474 20.3087 14.3102C21.0241 13.1193 21.7362 11.9263 22.445 10.7314C22.834 11.0915 23.2708 11.4791 23.7071 11.8933C24.7213 12.8558 25.0543 13.7706 24.8333 14.6382C24.6646 15.3015 24.0281 15.9851 22.8955 15.3208C22.5654 15.1269 22.4244 14.977 22.0926 14.7585C21.9143 14.6412 21.642 14.6061 21.4787 14.7291C21.0548 15.0487 20.8122 15.4554 20.6737 15.9589C20.539 16.4488 21.0296 16.7077 21.5383 16.9343C21.9762 17.1292 22.9175 17.3059 23.5176 17.3259C25.8564 17.4041 27.73 16.1967 29.0343 13.0821C29.2677 15.772 30.2612 17.2941 31.9876 17.2941C33.1417 17.2941 34.2989 15.8023 34.805 14.3347C34.9502 14.9329 35.1653 15.4532 35.443 15.8931C36.7732 18.0007 39.3536 17.5472 40.6498 15.7574C41.0506 15.2044 41.1116 15.0058 41.1116 15.0058C41.3007 16.6956 42.6616 17.286 43.4407 17.286C44.3134 17.286 45.2143 16.8735 45.8459 15.4518C45.9197 15.6063 46.0007 15.7535 46.089 15.8931C47.4191 18.0007 49.9997 17.5472 51.2959 15.7574C51.3569 15.6735 51.4104 15.5974 51.4564 15.5289L51.4944 16.639L50.301 17.7336C48.3006 19.5669 46.7812 20.9574 46.6694 22.5768C46.527 24.6417 48.2008 25.4092 49.4689 25.5097C50.8131 25.6164 51.9664 24.8732 52.6741 23.8331C53.297 22.9175 53.7048 20.947 53.6748 19.0009C53.663 18.2215 53.6431 17.2307 53.6278 16.1684C54.3301 15.353 55.1213 14.3222 55.8497 13.116C56.6435 11.8013 57.4943 10.0358 57.9299 8.66173C57.9299 8.66173 58.669 8.66823 59.4579 8.61655C59.7102 8.60003 59.7828 8.65171 59.736 8.83645C59.6798 9.06005 58.7393 12.6869 59.5977 15.103C60.185 16.7571 61.5091 17.289 62.2941 17.289C63.2133 17.289 64.0924 16.595 64.5635 15.5646C64.6204 15.6794 64.6797 15.7905 64.7445 15.8933C66.0746 18.0009 68.6461 17.5444 69.9515 15.7574C70.2461 15.3542 70.4132 15.0058 70.4132 15.0058C70.6933 16.7548 72.0534 17.295 72.8325 17.295C73.6439 17.295 74.4142 16.9622 75.0389 15.4837C75.0653 16.1348 75.1062 16.6671 75.1711 16.8348C75.2106 16.9376 75.4412 17.0663 75.6089 17.1285C76.3514 17.4038 77.1083 17.2737 77.3885 17.2171C77.5826 17.1777 77.7339 17.022 77.7547 16.6202C77.8092 15.5646 77.7758 13.7912 78.0957 12.473C78.6327 10.2612 79.1339 9.40317 79.3715 8.97848C79.5046 8.7403 79.6545 8.7011 79.66 8.953C79.6712 9.46276 79.6965 10.9592 79.9047 12.9701C80.0576 14.4488 80.2615 15.3229 80.4185 15.5998C80.8663 16.3908 81.4192 16.4282 81.8695 16.4282C82.156 16.4282 82.7551 16.3491 82.7015 15.8457C82.6753 15.6003 82.721 14.0837 83.2506 11.9045C83.5964 10.4814 84.1729 9.19575 84.3809 8.72554C84.4577 8.55222 84.4934 8.6888 84.492 8.71552C84.4482 9.69549 84.35 12.901 84.7492 14.6542C85.2906 17.0292 86.856 17.295 87.4017 17.295C88.5664 17.295 89.5189 16.4091 89.8397 14.0779C89.9171 13.5168 89.8027 13.0838 89.4597 13.0838Z" fill="#ECECEC"/>
</g>
<defs>
<clipPath id="clip0_168_60">
<rect width="90" height="25.6639" fill="white"/>
</clipPath>
</defs>
</svg>
