<svg width="32" height="32" viewBox="0 0 32 32" fill="none" xmlns="http://www.w3.org/2000/svg">
<g id="uil:map-marker-info">
<path id="Vector" d="M16 13.3333C15.6463 13.3333 15.3072 13.4738 15.0572 13.7239C14.8071 13.9739 14.6666 14.313 14.6666 14.6667V17.3333C14.6666 17.687 14.8071 18.0261 15.0572 18.2761C15.3072 18.5262 15.6463 18.6667 16 18.6667C16.3536 18.6667 16.6927 18.5262 16.9428 18.2761C17.1928 18.0261 17.3333 17.687 17.3333 17.3333V14.6667C17.3333 14.313 17.1928 13.9739 16.9428 13.7239C16.6927 13.4738 16.3536 13.3333 16 13.3333ZM27.28 12.9067C27.1032 10.9528 26.4222 9.07831 25.3037 7.46654C24.1852 5.85478 22.6675 4.56096 20.899 3.71166C19.1306 2.86236 17.1719 2.48668 15.2147 2.62136C13.2575 2.75604 11.3688 3.39647 9.7333 4.48C8.33222 5.41686 7.15603 6.6524 6.28922 8.09785C5.42241 9.54331 4.88649 11.1628 4.71996 12.84C4.55661 14.5062 4.7662 16.1879 5.33352 17.763C5.90085 19.3382 6.81169 20.7673 7.99996 21.9467L15.0666 29.0267C15.1906 29.1516 15.338 29.2508 15.5005 29.3185C15.663 29.3862 15.8373 29.4211 16.0133 29.4211C16.1893 29.4211 16.3636 29.3862 16.5261 29.3185C16.6885 29.2508 16.836 29.1516 16.96 29.0267L24 21.9467C25.1882 20.7673 26.0991 19.3382 26.6664 17.763C27.2337 16.1879 27.4433 14.5062 27.28 12.84V12.9067ZM22.1333 20.0667L16 26.2L9.86663 20.0667C8.96275 19.1627 8.27037 18.0698 7.83925 16.8663C7.40814 15.6629 7.24901 14.3789 7.3733 13.1067C7.49839 11.8148 7.90898 10.5669 8.57539 9.45312C9.2418 8.33937 10.1474 7.38761 11.2266 6.66667C12.6412 5.72698 14.3017 5.22573 16 5.22573C17.6982 5.22573 19.3587 5.72698 20.7733 6.66667C21.8493 7.38482 22.7529 8.33237 23.4191 9.44125C24.0854 10.5501 24.4977 11.7928 24.6266 13.08C24.755 14.3566 24.5978 15.6457 24.1666 16.8541C23.7354 18.0624 23.0408 19.1598 22.1333 20.0667ZM17.2266 10.0933C17.1991 10.0118 17.1586 9.93528 17.1066 9.86667L16.9466 9.66667C16.7875 9.51552 16.5934 9.40602 16.3818 9.34787C16.1701 9.28972 15.9474 9.28473 15.7333 9.33333H15.4933L15.2533 9.45333L15.0533 9.62667L14.8933 9.82667C14.8414 9.89528 14.8008 9.97182 14.7733 10.0533C14.7327 10.1327 14.7057 10.2184 14.6933 10.3067C14.6709 10.4253 14.6619 10.546 14.6666 10.6667C14.6629 10.8458 14.6994 11.0235 14.7733 11.1867C14.841 11.3442 14.9357 11.4886 15.0533 11.6133C15.181 11.737 15.3301 11.8364 15.4933 11.9067C15.8197 12.0307 16.1802 12.0307 16.5066 11.9067C16.6686 11.834 16.8172 11.7348 16.9466 11.6133C17.0642 11.4886 17.1589 11.3442 17.2266 11.1867C17.2967 11.0222 17.333 10.8454 17.3333 10.6667C17.3413 10.5824 17.3413 10.4976 17.3333 10.4133C17.3209 10.3003 17.2845 10.1912 17.2266 10.0933Z" fill="#F24822"/>
</g>
</svg>
