<svg width="32" height="32" viewBox="0 0 32 32" fill="none" xmlns="http://www.w3.org/2000/svg">
<g id="basil:current-location-outline">
<path id="Vector" d="M16 11C14.6739 11 13.4021 11.5268 12.4645 12.4645C11.5268 13.4021 11 14.6739 11 16C11 17.3261 11.5268 18.5979 12.4645 19.5355C13.4021 20.4732 14.6739 21 16 21C17.3261 21 18.5979 20.4732 19.5355 19.5355C20.4732 18.5979 21 17.3261 21 16C21 14.6739 20.4732 13.4021 19.5355 12.4645C18.5979 11.5268 17.3261 11 16 11Z" fill="#ECECEC"/>
<path id="Vector_2" fill-rule="evenodd" clip-rule="evenodd" d="M16 1.66667C16.2652 1.66667 16.5195 1.77203 16.7071 1.95957C16.8946 2.1471 17 2.40146 17 2.66667V4.37601C19.7386 4.61155 22.3061 5.80652 24.2498 7.75018C26.1934 9.69384 27.3884 12.2614 27.624 15H29.3333C29.5985 15 29.8529 15.1054 30.0404 15.2929C30.2279 15.4804 30.3333 15.7348 30.3333 16C30.3333 16.2652 30.2279 16.5196 30.0404 16.7071C29.8529 16.8946 29.5985 17 29.3333 17H27.624C27.3884 19.7386 26.1934 22.3062 24.2498 24.2498C22.3061 26.1935 19.7386 27.3885 17 27.624V29.3333C17 29.5986 16.8946 29.8529 16.7071 30.0404C16.5195 30.228 16.2652 30.3333 16 30.3333C15.7347 30.3333 15.4804 30.228 15.2929 30.0404C15.1053 29.8529 15 29.5986 15 29.3333V27.624C12.2613 27.3885 9.69379 26.1935 7.75013 24.2498C5.80647 22.3062 4.61151 19.7386 4.37596 17H2.66663C2.40141 17 2.14706 16.8946 1.95952 16.7071C1.77198 16.5196 1.66663 16.2652 1.66663 16C1.66663 15.7348 1.77198 15.4804 1.95952 15.2929C2.14706 15.1054 2.40141 15 2.66663 15H4.37596C4.61151 12.2614 5.80647 9.69384 7.75013 7.75018C9.69379 5.80652 12.2613 4.61155 15 4.37601V2.66667C15 2.40146 15.1053 2.1471 15.2929 1.95957C15.4804 1.77203 15.7347 1.66667 16 1.66667ZM6.33329 16C6.33329 17.2695 6.58333 18.5265 7.06912 19.6993C7.55492 20.8721 8.26696 21.9377 9.16459 22.8354C10.0622 23.733 11.1279 24.445 12.3007 24.9308C13.4735 25.4166 14.7305 25.6667 16 25.6667C17.2694 25.6667 18.5264 25.4166 19.6992 24.9308C20.872 24.445 21.9377 23.733 22.8353 22.8354C23.733 21.9377 24.445 20.8721 24.9308 19.6993C25.4166 18.5265 25.6666 17.2695 25.6666 16C25.6666 13.4362 24.6482 10.9775 22.8353 9.16464C21.0225 7.35179 18.5637 6.33334 16 6.33334C13.4362 6.33334 10.9774 7.35179 9.16459 9.16464C7.35174 10.9775 6.33329 13.4362 6.33329 16Z" fill="#ECECEC"/>
</g>
</svg>
